<?xml version="1.0" standalone="no"?>
<!DOCTYPE svg PUBLIC "-//W3C//DTD SVG 20010904//EN"
 "http://www.w3.org/TR/2001/REC-SVG-20010904/DTD/svg10.dtd">
<svg version="1.0" xmlns="http://www.w3.org/2000/svg"
 width="820.000000pt" height="763.000000pt" viewBox="0 0 820.000000 763.000000"
 preserveAspectRatio="xMidYMid meet">

<g transform="translate(0.000000,763.000000) scale(0.100000,-0.100000)"
fill="#000000" stroke="none">
<path d="M3313 7198 c-12 -6 -27 -24 -34 -40 -11 -27 -8 -38 44 -146 104 -214
129 -329 104 -473 -15 -86 -92 -344 -108 -365 -6 -7 -31 -15 -57 -19 -189 -28
-490 -114 -679 -195 -348 -150 -578 -364 -643 -600 -7 -25 -14 -97 -16 -160
-1 -63 -5 -194 -9 -290 -10 -272 11 -695 52 -1028 8 -73 14 -134 12 -136 -2
-2 -76 -26 -164 -55 -828 -267 -1408 -686 -1594 -1153 -52 -129 -65 -199 -65
-348 1 -167 22 -257 99 -416 68 -141 150 -252 284 -385 208 -206 442 -367 764
-525 513 -251 1170 -427 1902 -509 570 -63 1340 -61 1850 6 44 6 113 14 153
19 129 16 372 60 557 101 1049 231 1811 665 2088 1189 83 156 112 269 111 435
0 131 -10 192 -56 330 -70 209 -180 375 -383 577 l-124 124 10 40 c6 21 40 84
74 140 186 295 304 618 355 967 48 321 7 524 -134 662 -65 63 -145 111 -236
141 -49 16 -109 19 -529 24 -407 4 -475 7 -482 20 -4 8 -18 47 -29 85 -32 103
-93 228 -150 305 -157 212 -433 388 -800 511 -85 28 -162 60 -171 70 -9 10
-34 62 -54 115 -77 198 -78 204 -82 394 -8 345 -6 328 -28 344 -28 22 -78 20
-99 -3 -51 -56 -79 -271 -56 -420 7 -44 36 -150 65 -236 43 -127 49 -155 36
-155 -9 0 -54 7 -101 15 -130 23 -283 43 -420 55 -171 14 -173 15 -202 59 -23
35 -24 39 -10 80 18 53 3 94 -39 112 -60 24 -92 -8 -139 -142 l-29 -84 -138
-6 c-76 -3 -207 -10 -290 -14 l-153 -8 0 27 c0 15 9 62 19 104 39 155 37 280
-10 459 -37 141 -145 365 -192 398 -25 17 -43 18 -74 3z m820 -1200 c4 -62 9
-125 13 -139 l6 -26 -144 -7 c-146 -6 -361 -28 -501 -50 -42 -7 -79 -10 -82
-8 -18 18 14 289 35 302 7 4 69 13 139 19 69 6 142 13 161 14 19 2 110 5 201
5 l166 2 6 -112z m348 102 c224 -18 510 -58 646 -92 39 -9 44 -14 61 -62 28
-74 66 -225 59 -232 -3 -3 -54 5 -114 20 -221 52 -448 83 -693 95 l-135 6 -12
55 c-6 30 -12 92 -12 138 l-1 82 33 0 c18 0 94 -5 168 -10z m-1195 -92 c-3
-24 -9 -95 -12 -159 l-7 -116 -81 -18 c-456 -98 -874 -310 -1051 -534 -22 -29
-43 -47 -48 -42 -15 15 -8 133 12 214 28 108 74 190 151 268 175 179 502 322
935 409 50 10 94 19 99 19 5 1 6 -18 2 -41z m2219 -106 c277 -97 513 -240 640
-389 66 -78 128 -189 143 -261 l10 -42 -56 -40 c-30 -22 -58 -40 -62 -40 -4 0
-16 19 -26 42 -63 141 -320 320 -633 442 l-105 42 -17 86 c-9 47 -24 111 -33
141 -9 30 -16 58 -16 61 0 9 42 -2 155 -42z m1877 -953 c126 -27 225 -97 273
-192 20 -41 25 -65 25 -128 0 -178 -51 -452 -126 -672 -121 -357 -377 -749
-539 -828 -40 -19 -66 -24 -130 -24 -71 0 -596 28 -732 39 l-51 4 -48 -106
c-199 -451 -415 -777 -682 -1034 -236 -226 -491 -365 -790 -428 -128 -28 -395
-37 -557 -20 -223 22 -506 76 -605 115 -406 156 -709 451 -938 911 -257 514
-393 1185 -409 2005 l-6 317 73 -70 c310 -293 892 -491 1613 -549 196 -15 676
-7 857 16 519 64 913 188 1282 405 217 128 236 140 300 188 61 45 66 47 148
53 167 11 987 9 1042 -2z m-5345 -1496 c18 -87 51 -225 73 -307 23 -81 40
-150 38 -151 -2 -2 -53 -23 -114 -48 -278 -113 -493 -245 -640 -391 -233 -233
-283 -475 -152 -730 58 -111 211 -266 359 -363 442 -290 1129 -484 1964 -553
72 -6 265 -14 430 -17 1392 -27 2632 342 2986 889 142 221 125 460 -49 687
-121 158 -367 329 -642 446 -167 71 -146 78 175 60 518 -30 486 -29 546 -10
60 19 105 44 162 88 48 37 53 35 176 -68 225 -189 369 -398 426 -620 23 -89
21 -261 -5 -360 -145 -570 -959 -1083 -2110 -1331 -498 -107 -915 -152 -1485
-161 -695 -10 -1266 46 -1850 183 -1086 254 -1831 729 -2005 1279 -34 107 -39
274 -11 390 84 355 416 688 951 954 96 48 225 106 285 131 91 36 437 158 455
159 3 1 20 -70 37 -156z m187 -660 c55 -149 190 -417 274 -543 202 -302 424
-504 707 -644 176 -88 257 -113 485 -151 296 -50 394 -58 617 -52 280 8 468
51 699 162 427 206 794 612 1090 1207 56 113 37 109 194 38 362 -163 607 -379
671 -592 18 -57 21 -86 16 -155 -4 -74 -10 -97 -45 -167 -89 -178 -262 -328
-542 -471 -418 -212 -975 -351 -1675 -417 -222 -21 -1012 -17 -1235 5 -854 87
-1508 288 -1900 583 -154 116 -248 232 -291 361 -17 53 -21 82 -17 158 4 86 7
100 47 182 37 75 59 103 145 188 116 115 236 198 411 285 116 57 279 128 300
129 6 1 28 -47 49 -106z"/>
<path d="M6563 4630 c-97 -8 -253 -37 -265 -48 -4 -4 -12 -76 -18 -161 -12
-171 -35 -365 -80 -675 -16 -114 -30 -216 -30 -226 0 -13 21 -25 83 -45 76
-26 97 -29 268 -33 148 -3 198 -1 250 12 135 34 297 136 371 234 57 74 120
209 183 392 54 155 57 171 59 265 1 75 -4 112 -17 147 -21 55 -80 112 -134
129 -45 15 -527 21 -670 9z m645 -218 c38 -22 31 -110 -24 -272 -66 -198 -131
-329 -196 -393 -140 -140 -349 -194 -500 -130 -35 14 -69 31 -75 36 -18 13
-16 81 7 254 11 82 25 196 30 253 20 187 64 243 209 260 110 13 522 7 549 -8z"/>
</g>
</svg>
